# xmcd
#
# Track frame offsets: 
#        150
#        25370
#        38876
#        49454
#        84237
#        103289
#        124441
#        140959
#        165665
#        184423
#        196767
#        211318
#        231704
#        241441
#        256283
#
# Disc length: 3586 seconds
#
# Revision: 3
# Processed by: cddbd v1.5.2PL0 Copyright (c) Steve Scherf et al.
# Submitted via: ExactAudioCopy v0.99pb5
#
DISCID=e90e000f
DTITLE=Dr. John - The Definitive Pop Collection [CD1]
DYEAR=2006
DGENRE=Pop/Funk
TTITLE0=Gris-Gris Gumbo Ya Ya
TTITLE1=Mama Roux
TTITLE2=Jump Sturdy
TTITLE3=I Walk On Guilded Splinters
TTITLE4=Black Widow Spider
TTITLE5=Loop Garoo
TTITLE6=Wash, Mama, Wash
TTITLE7=Familiar Reality - Opening
TTITLE8=Iko Iko
TTITLE9=Somebody Change The Lock
TTITLE10=Mess Around
TTITLE11=Junko Partner
TTITLE12=Tipitina
TTITLE13=Huey Smith Medley
TTITLE14=Traveling Mood
EXTD=
EXTT0=
EXTT1=
EXTT2=
EXTT3=
EXTT4=
EXTT5=
EXTT6=
EXTT7=
EXTT8=
EXTT9=
EXTT10=
EXTT11=
EXTT12=
EXTT13=
EXTT14=
PLAYORDER=
